<?xml version="1.0" encoding="UTF-8"?>
<svg version="1.1" xmlns="http://www.w3.org/2000/svg" width="128" height="128">
<path d="M0 0 C1.08092422 -0.00191345 2.16184845 -0.0038269 3.27552795 -0.00579834 C5.55404901 -0.00715505 7.83257793 -0.00349464 10.11108398 0.00488281 C13.58269779 0.01557891 17.05379292 0.00497514 20.52539062 -0.0078125 C22.74609488 -0.00649061 24.96679882 -0.00392761 27.1875 0 C28.2179393 -0.00404846 29.2483786 -0.00809692 30.31004333 -0.01226807 C38.57517052 0.04101881 45.88166778 0.51963742 52.16455078 6.39746094 C54.91346099 9.8311307 55.95957027 13.69937352 57.09765625 17.890625 C57.47954102 19.1590625 57.47954102 19.1590625 57.86914062 20.453125 C58.99049366 24.28567392 59.66015625 27.22264011 59.66015625 31.265625 C60.32015625 31.265625 60.98015625 31.265625 61.66015625 31.265625 C65.21207244 40.16775457 68.48241488 48.68124698 69.66015625 58.265625 C70.32015625 58.265625 70.98015625 58.265625 71.66015625 58.265625 C71.66015625 63.215625 71.66015625 68.165625 71.66015625 73.265625 C71.00015625 73.265625 70.34015625 73.265625 69.66015625 73.265625 C69.16515625 74.750625 69.16515625 74.750625 68.66015625 76.265625 C65.59765625 77.453125 65.59765625 77.453125 62.66015625 78.265625 C62.66015625 78.925625 62.66015625 79.585625 62.66015625 80.265625 C31.70868149 85.30196292 -3.45097562 85.86695144 -34.33984375 80.265625 C-34.33984375 79.605625 -34.33984375 78.945625 -34.33984375 78.265625 C-35.45359375 77.9975 -36.56734375 77.729375 -37.71484375 77.453125 C-41.33984375 76.265625 -41.33984375 76.265625 -43.33984375 73.265625 C-44.19267166 64.22786429 -43.33792045 55.84940412 -40.33984375 47.265625 C-39.67984375 47.265625 -39.01984375 47.265625 -38.33984375 47.265625 C-38.24832031 46.47929688 -38.15679687 45.69296875 -38.0625 44.8828125 C-37.12223371 40.17639853 -35.47997577 35.86804148 -33.77734375 31.390625 C-33.44798828 30.51148437 -33.11863281 29.63234375 -32.77929688 28.7265625 C-31.97097761 26.57104447 -31.15772081 24.41753059 -30.33984375 22.265625 C-29.67984375 22.265625 -29.01984375 22.265625 -28.33984375 22.265625 C-28.23671875 21.09 -28.13359375 19.914375 -28.02734375 18.703125 C-27.27157342 12.92250325 -25.73131091 8.68871642 -21.58984375 4.453125 C-14.72695084 -0.16612984 -8.02793184 -0.03147886 0 0 Z " fill="#010100" transform="translate(53.33984375,25.734375)"/>
<path d="M0 0 C4.25279033 6.3791855 6.1089844 11.32408834 5 19 C4.53121304 20.25406549 4.03929304 21.49959899 3.53125 22.73828125 C1.7527503 27.24763171 1.34826641 31.50031157 1.125 36.3125 C1.06570312 37.10978516 1.00640625 37.90707031 0.9453125 38.72851562 C0.56951791 42.98469495 0.56951791 42.98469495 2.32373047 46.68432617 C5.34929567 49.05903792 8.1548852 49.12900389 11.85107422 49.14526367 C12.83574677 49.15164352 13.82041931 49.15802338 14.83493042 49.16459656 C15.89745026 49.16570938 16.95997009 49.1668222 18.0546875 49.16796875 C19.14838654 49.17129715 20.24208557 49.17462555 21.368927 49.17805481 C23.68393533 49.18312022 25.99895097 49.18546325 28.31396484 49.18530273 C31.85396379 49.18748702 35.39365005 49.20564099 38.93359375 49.22460938 C41.1822906 49.22754381 43.43098893 49.22952827 45.6796875 49.23046875 C46.73815887 49.23765427 47.79663025 49.24483978 48.88717651 49.25224304 C49.87815338 49.24916641 50.86913025 49.24608978 51.89013672 49.24291992 C53.19227615 49.24505745 53.19227615 49.24505745 54.52072144 49.24723816 C58.46090806 48.8543156 61.19656994 47.80343006 64 45 C64.06232592 42.07364954 63.99653516 39.28694868 63.8125 36.375 C63.76512695 35.20130859 63.76512695 35.20130859 63.71679688 34.00390625 C63.43947599 29.15681947 62.51170613 25.24235191 60.67016602 20.75976562 C58.4978002 15.05542581 59.6093704 9.29432759 62 3.875 C62.64825209 2.57399406 63.30828909 1.27842999 64 0 C68 4.75 68 4.75 68 7 C68.66 7 69.32 7 70 7 C70.32613281 8.2065625 70.65226562 9.413125 70.98828125 10.65625 C71.42949026 12.27088724 71.87090766 13.88546755 72.3125 15.5 C72.52583984 16.29148437 72.73917969 17.08296875 72.95898438 17.8984375 C74.03849622 21.82979408 75.20425018 25.66187701 76.66796875 29.46875 C78 33 78 33 78 35 C78.66 35 79.32 35 80 35 C80.84480235 37.85120792 81.67601416 40.70527344 82.5 43.5625 C82.85771484 44.76229492 82.85771484 44.76229492 83.22265625 45.98632812 C86.44787398 57.27459016 86.44787398 57.27459016 83.9375 62 C80.86664787 63.58495594 78.27813225 62.68036707 75 62 C75 61.34 75 60.68 75 60 C46.95 60 18.9 60 -10 60 C-10 60.66 -10 61.32 -10 62 C-16.37426409 63.32296047 -16.37426409 63.32296047 -18.9375 62 C-21.88317798 56.45519439 -19.34862681 49.70271568 -17.6875 44.0625 C-17.47416016 43.30259766 -17.26082031 42.54269531 -17.04101562 41.75976562 C-15.60320219 36.73385656 -13.89050995 31.87319133 -12 27 C-11.34 27 -10.68 27 -10 27 C-9.81824219 26.24976562 -9.63648438 25.49953125 -9.44921875 24.7265625 C-4.95712861 6.43569292 -4.95712861 6.43569292 -2 2 C-1.34 2 -0.68 2 0 2 C0 1.34 0 0.68 0 0 Z " fill="#E3E3E3" transform="translate(35,34)"/>
<path d="M0 0 C4 4.75 4 4.75 4 7 C4.66 7 5.32 7 6 7 C6.48919922 8.80984375 6.48919922 8.80984375 6.98828125 10.65625 C7.42949026 12.27088724 7.87090766 13.88546755 8.3125 15.5 C8.52583984 16.29148437 8.73917969 17.08296875 8.95898438 17.8984375 C10.03849622 21.82979408 11.20425018 25.66187701 12.66796875 29.46875 C14 33 14 33 14 35 C14.66 35 15.32 35 16 35 C16.84480235 37.85120792 17.67601416 40.70527344 18.5 43.5625 C18.73847656 44.36236328 18.97695312 45.16222656 19.22265625 45.98632812 C20.59065281 50.77431609 21.38216927 54.96702507 21 60 C19.8125 62 19.8125 62 18 63 C15.5546875 62.98046875 15.5546875 62.98046875 13 62 C11.48828125 59.05078125 11.48828125 59.05078125 10.3125 55.3125 C9.91675781 54.09175781 9.52101563 52.87101562 9.11328125 51.61328125 C8.74589844 50.42089844 8.37851563 49.22851562 8 48 C7.62488281 46.91847656 7.24976562 45.83695313 6.86328125 44.72265625 C5.99366398 41.98001717 5.83200972 39.85583472 6 37 C5.34 37 4.68 37 4 37 C2.65068404 29.11370672 1.71949597 21.30932855 1.21875 13.32421875 C0.92565227 8.87017999 0.48052551 4.43719298 0 0 Z " fill="#CF2E06" transform="translate(99,34)"/>
<path d="M0 0 C0.33 0 0.66 0 1 0 C0.67 3.3 0.34 6.6 0 10 C-0.66 10 -1.32 10 -2 10 C-1.94779297 11.20269531 -1.94779297 11.20269531 -1.89453125 12.4296875 C-1.52242416 28.05818513 -4.55227994 42.40097154 -10 57 C-10.66 57 -11.32 57 -12 57 C-12.495 59.475 -12.495 59.475 -13 62 C-14.8125 62.6875 -14.8125 62.6875 -17 63 C-18.75 62 -18.75 62 -20 60 C-20.41663108 54.26218603 -19.28805523 49.49705 -17.6875 44.0625 C-17.47416016 43.30259766 -17.26082031 42.54269531 -17.04101562 41.75976562 C-15.60320219 36.73385656 -13.89050995 31.87319133 -12 27 C-11.34 27 -10.68 27 -10 27 C-9.81824219 26.24976562 -9.63648438 25.49953125 -9.44921875 24.7265625 C-4.95712861 6.43569292 -4.95712861 6.43569292 -2 2 C-1.34 2 -0.68 2 0 2 C0 1.34 0 0.68 0 0 Z " fill="#CF2E06" transform="translate(35,34)"/>
<path d="M0 0 C0 0.66 0 1.32 0 2 C0.99 2.33 1.98 2.66 3 3 C1.91789661 5.52490791 0.96225186 7.03546037 -1.0625 8.9375 C-3.28970409 11.30839468 -3.64629437 12.81664932 -4 16 C-4.66 16 -5.32 16 -6 16 C-6.33 17.32 -6.66 18.64 -7 20 C-14.77696028 19.37282578 -21.62684813 17.45771729 -29 15 C-29.43028322 9.75054466 -29.43028322 9.75054466 -29 7 C-25.83095498 4.2037838 -22.0126992 3.21314162 -18 2 C-18 1.34 -18 0.68 -18 0 C-11.36652305 -1.55940688 -6.42468262 -2.56987305 0 0 Z " fill="#000000" transform="translate(29,23)"/>
<path d="M0 0 C1.85044922 0.00966797 1.85044922 0.00966797 3.73828125 0.01953125 C6.6875 0.1875 6.6875 0.1875 7.6875 1.1875 C8.19633348 5.63979291 6.97757372 8.39703316 4.6875 12.1875 C3.06300757 13.89529973 1.39529973 15.56300757 -0.3125 17.1875 C-0.951875 18.115625 -1.59125 19.04375 -2.25 20 C-4.3125 22.1875 -4.3125 22.1875 -7.5625 22.5 C-8.47 22.396875 -9.3775 22.29375 -10.3125 22.1875 C-10.6425 21.1975 -10.9725 20.2075 -11.3125 19.1875 C-11.9725 19.1875 -12.6325 19.1875 -13.3125 19.1875 C-13.3125 18.1975 -13.3125 17.2075 -13.3125 16.1875 C-14.199375 16.22875 -15.08625 16.27 -16 16.3125 C-19.28527013 16.18852754 -21.36699295 15.57362096 -24.3125 14.1875 C-23.80843201 9.7769051 -22.45156582 7.32656582 -19.3125 4.1875 C-16.4375 3 -16.4375 3 -13.3125 2.1875 C-11.95705078 1.67316406 -11.95705078 1.67316406 -10.57421875 1.1484375 C-6.90202821 0.06657059 -3.82109672 -0.04438444 0 0 Z " fill="#000000" transform="translate(120.3125,5.8125)"/>
<path d="M0 0 C4.94271821 4.20656869 6.24184617 8.66781382 7 15 C7.22210285 17.7644716 7.19562632 20.21232493 7 23 C5 25 5 25 1.1875 25.3125 C-3.70857041 25.19698473 -6.56418763 23.43581237 -10 20 C-10.125 17.375 -10.125 17.375 -10 15 C-10.66 15 -11.32 15 -12 15 C-13.11436226 10.54255094 -13.36827609 6.5666235 -13 2 C-9.94067778 -2.38946232 -4.59925207 -1.45369217 0 0 Z " fill="#FFE88E" transform="translate(85,48)"/>
<path d="M0 0 C1.9375 1 1.9375 1 3 3 C3.59840682 9.82183779 3.26834898 17.89992306 -0.875 23.5625 C-5.07326281 26.40250131 -8.98766343 26.27340018 -14 26 C-14.99 25.34 -15.98 24.68 -17 24 C-17.2982655 19.45145106 -17.10962199 15.43848796 -16 11 C-15.34 11 -14.68 11 -14 11 C-13.95875 10.113125 -13.9175 9.22625 -13.875 8.3125 C-12.02379753 1.30437636 -6.87162199 -1.03722596 0 0 Z " fill="#FFE88E" transform="translate(59,47)"/>
<path d="M0 0 C3.25943798 0.01839274 6.5185913 0.02050766 9.77807617 0.02026367 C39.4017937 0.06935647 39.4017937 0.06935647 48.93237305 2.20581055 C46.01920253 3.84174759 43.69594849 4.52145981 40.3737793 4.7956543 C39.49351074 4.86896973 38.61324219 4.94228516 37.70629883 5.01782227 C33.09596914 5.3302632 28.48682531 5.57750793 23.86987305 5.76831055 C22.35780273 5.83091064 22.35780273 5.83091064 20.81518555 5.89477539 C-0.46988107 6.72305387 -22.00162184 6.63361233 -43.06762695 3.20581055 C-43.06762695 2.87581055 -43.06762695 2.54581055 -43.06762695 2.20581055 C-28.67583075 0.53146342 -14.48544121 -0.08431317 0 0 Z " fill="#A4A4A4" transform="translate(64.067626953125,97.794189453125)"/>
<path d="M0 0 C0.66 0 1.32 0 2 0 C1.23311834 5.49598526 1.23311834 5.49598526 0.01171875 8.13671875 C-1.39225279 12.11012082 -1.58068929 15.93896895 -1.8125 20.125 C-1.90821289 21.34123047 -1.90821289 21.34123047 -2.00585938 22.58203125 C-2.05162109 23.36191406 -2.09738281 24.14179687 -2.14453125 24.9453125 C-2.18940674 25.65187988 -2.23428223 26.35844727 -2.28051758 27.08642578 C-1.90699381 29.63444952 -1.00487173 30.43634586 1 32 C3.91974237 32.97324746 5.81079493 33.13188928 8.85107422 33.14526367 C9.83574677 33.15164352 10.82041931 33.15802338 11.83493042 33.16459656 C12.89745026 33.16570938 13.95997009 33.1668222 15.0546875 33.16796875 C16.14838654 33.17129715 17.24208557 33.17462555 18.368927 33.17805481 C20.68393533 33.18312022 22.99895097 33.18546325 25.31396484 33.18530273 C28.85396379 33.18748702 32.39365005 33.20564099 35.93359375 33.22460938 C38.1822906 33.22754381 40.43098893 33.22952827 42.6796875 33.23046875 C43.73815887 33.23765427 44.79663025 33.24483978 45.88717651 33.25224304 C46.87815338 33.24916641 47.86913025 33.24608978 48.89013672 33.24291992 C49.75822968 33.24434494 50.62632263 33.24576996 51.52072144 33.24723816 C55.46090806 32.8543156 58.19656994 31.80343006 61 29 C61.06232592 26.07364954 60.99653516 23.28694868 60.8125 20.375 C60.76512695 19.20130859 60.76512695 19.20130859 60.71679688 18.00390625 C60.39899998 12.4493692 59.07257623 8.15071505 57 3 C57 2.01 57 1.02 57 0 C57.66 0 58.32 0 59 0 C62.15547408 6.66318712 63.49777633 13.08055246 64 20.375 C64.06566162 21.14763184 64.13132324 21.92026367 64.19897461 22.71630859 C64.40182882 26.7271508 64.29281315 28.52539869 62.125 32.0390625 C60 34 60 34 58 34 C58 34.66 58 35.32 58 36 C54.93260667 36.89403588 52.19394452 37.12647815 49.00366211 37.12939453 C48.01260971 37.13254669 47.02155731 37.13569885 46.00047302 37.13894653 C44.40502403 37.13591019 44.40502403 37.13591019 42.77734375 37.1328125 C41.68031631 37.13376923 40.58328888 37.13472595 39.45301819 37.13571167 C37.13558902 37.13639178 34.81815793 37.13454924 32.50073242 37.13037109 C28.94771056 37.12501539 25.39481483 37.13032445 21.84179688 37.13671875 C19.59114555 37.13605804 17.34049431 37.13477702 15.08984375 37.1328125 C14.02418686 37.13483673 12.95852997 37.13686096 11.86058044 37.13894653 C10.37873009 37.13421829 10.37873009 37.13421829 8.86694336 37.12939453 C7.99742538 37.12859894 7.12790741 37.12780334 6.23204041 37.12698364 C4 37 4 37 1 36 C1 35.34 1 34.68 1 34 C0.401875 33.731875 -0.19625 33.46375 -0.8125 33.1875 C-3.06276887 31.96592547 -4.39396748 30.98439464 -6 29 C-6.2487793 27.00708008 -6.2487793 27.00708008 -6.07421875 24.76953125 C-6.01943359 23.96708984 -5.96464844 23.16464844 -5.90820312 22.33789062 C-5.83537109 21.50451172 -5.76253906 20.67113281 -5.6875 19.8125 C-5.62626953 18.96751953 -5.56503906 18.12253906 -5.50195312 17.25195312 C-5.34881209 15.16687905 -5.17625843 13.08324724 -5 11 C-4.34 11 -3.68 11 -3 11 C-2.87625 10.29875 -2.7525 9.5975 -2.625 8.875 C-1.96161655 5.82343613 -1.02788045 2.94659062 0 0 Z " fill="#A4A4A4" transform="translate(38,50)"/>
<path d="M0 0 C4.45381594 6.68072391 6.20692322 15.23000061 8 23 C8.66 23 9.32 23 10 23 C10.84480235 25.85120792 11.67601416 28.70527344 12.5 31.5625 C12.73847656 32.36236328 12.97695312 33.16222656 13.22265625 33.98632812 C16.41690341 45.16619318 16.41690341 45.16619318 14 50 C13.34 50 12.68 50 12 50 C11.34 47.36 10.68 44.72 10 42 C9.34 42 8.68 42 8 42 C3.25276897 28.1315169 -0.6058114 14.84237927 0 0 Z " fill="#E3E3E3" transform="translate(105,46)"/>
<path d="M0 0 C0.33 0 0.66 0 1 0 C0.7150684 11.51123671 -0.79858681 21.93651164 -4 33 C-4.66 33 -5.32 33 -6 33 C-6.0825 33.94875 -6.165 34.8975 -6.25 35.875 C-6.93991766 40.88977467 -9.00337644 45.38454926 -11 50 C-11.66 50 -12.32 50 -13 50 C-15.81136131 44.37727737 -13.35668421 37.73007391 -11.6875 32.0625 C-11.47416016 31.30259766 -11.26082031 30.54269531 -11.04101562 29.75976562 C-9.60320219 24.73385656 -7.89050995 19.87319133 -6 15 C-5.34 15 -4.68 15 -4 15 C-3.79503906 14.16855469 -3.59007812 13.33710937 -3.37890625 12.48046875 C-3.10949219 11.39378906 -2.84007812 10.30710937 -2.5625 9.1875 C-2.29566406 8.10855469 -2.02882813 7.02960937 -1.75390625 5.91796875 C-1.23922588 3.9259157 -0.65062825 1.95188476 0 0 Z " fill="#E3E3E3" transform="translate(29,46)"/>
<path d="M0 0 C1.2077558 3.62326739 0.54311128 4.64146369 -1 8 C-1.66 8 -2.32 8 -3 8 C-3 8.99 -3 9.98 -3 11 C-4.64556566 12.03435556 -6.3170608 13.02763513 -8 14 C-9.6857124 15.64740076 -11.3563186 17.31066078 -13 19 C-13.33 19 -13.66 19 -14 19 C-14.12117188 18.35933594 -14.24234375 17.71867187 -14.3671875 17.05859375 C-15.35679227 11.95071067 -16.48510951 6.97749731 -18 2 C-11.92972642 -0.1583195 -6.40629424 -0.20852314 0 0 Z " fill="#E3E3E3" transform="translate(56,30)"/>
<path d="M0 0 C4.69573843 0.03061107 8.46615182 0.61990953 12.875 2.1875 C12.215 4.4975 11.555 6.8075 10.875 9.1875 C10.215 9.1875 9.555 9.1875 8.875 9.1875 C8.545 12.4875 8.215 15.7875 7.875 19.1875 C7.17375 18.424375 6.4725 17.66125 5.75 16.875 C3.08111486 14.04001177 3.08111486 14.04001177 -0.25 13 C-4.24974503 10.47842161 -4.5723612 7.71792827 -5.6796875 3.26953125 C-5.82664062 2.58246094 -5.97359375 1.89539063 -6.125 1.1875 C-4.43044966 -0.50705034 -2.3141874 0.01576422 0 0 Z " fill="#E3E3E3" transform="translate(84.125,29.8125)"/>
<path d="M0 0 C6.93 0 13.86 0 21 0 C21.99 2.97 22.98 5.94 24 9 C14.76 9 5.52 9 -4 9 C-4 8.34 -4 7.68 -4 7 C-3.34 7 -2.68 7 -2 7 C-1.34 4.69 -0.68 2.38 0 0 Z " fill="#CF2E06" transform="translate(57,31)"/>
<path d="M0 0 C1.74216797 0.04060547 1.74216797 0.04060547 3.51953125 0.08203125 C4.39996094 0.11683594 5.28039062 0.15164062 6.1875 0.1875 C5.1975 0.6825 5.1975 0.6825 4.1875 1.1875 C3.72226937 3.08283342 3.72226937 3.08283342 3.5625 5.25 C3.43875 6.549375 3.315 7.84875 3.1875 9.1875 C2.1975 9.5175 1.2075 9.8475 0.1875 10.1875 C0.1875 9.5275 0.1875 8.8675 0.1875 8.1875 C-3.1125 7.8575 -6.4125 7.5275 -9.8125 7.1875 C-9.8125 6.1975 -9.8125 5.2075 -9.8125 4.1875 C-10.4725 3.8575 -11.1325 3.5275 -11.8125 3.1875 C-7.74522755 0.26917457 -4.96334383 -0.15040436 0 0 Z " fill="#DCDCDC" transform="translate(16.8125,28.8125)"/>
<path d="M0 0 C-1.36144033 5.19822672 -3.46730171 8.09543873 -7 12 C-8.65 11.67 -10.3 11.34 -12 11 C-12 10.34 -12 9.68 -12 9 C-13.65 8.67 -15.3 8.34 -17 8 C-16.67 7.34 -16.34 6.68 -16 6 C-12.9375 5.375 -12.9375 5.375 -10 5 C-9.67 4.01 -9.34 3.02 -9 2 C-5.99208089 -0.04108797 -3.57804656 -0.19878036 0 0 Z " fill="#E1E1E1" transform="translate(122,10)"/>
<path d="M0 0 C2.97 0.495 2.97 0.495 6 1 C6 1.66 6 2.32 6 3 C8.64 3.33 11.28 3.66 14 4 C14 4.66 14 5.32 14 6 C12.41590006 5.88512252 10.83271037 5.75765492 9.25 5.625 C8.36828125 5.55539063 7.4865625 5.48578125 6.578125 5.4140625 C4.00933618 5.00149945 2.24158985 4.28839043 0 3 C0 2.01 0 1.02 0 0 Z " fill="#FFE88E" transform="translate(37,73)"/>
<path d="M0 0 C-0.33 0.99 -0.66 1.98 -1 3 C-2.32 3 -3.64 3 -5 3 C-5 3.66 -5 4.32 -5 5 C-8.50776784 6.60355101 -11.14354879 7.22036864 -15 7 C-15 6.34 -15 5.68 -15 5 C-13.68 5 -12.36 5 -11 5 C-11 4.34 -11 3.68 -11 3 C-9.73160474 2.49384702 -8.46016898 1.99530901 -7.1875 1.5 C-6.12595703 1.08234375 -6.12595703 1.08234375 -5.04296875 0.65625 C-3 0 -3 0 0 0 Z " fill="#FFE88E" transform="translate(98,71)"/>
<path d="M0 0 C0.33 0.66 0.66 1.32 1 2 C3.12576782 2.46651207 3.12576782 2.46651207 5.5625 2.625 C6.38878906 2.69976562 7.21507812 2.77453125 8.06640625 2.8515625 C8.70449219 2.90054688 9.34257812 2.94953125 10 3 C10 3.99 10 4.98 10 6 C6.7 5.67 3.4 5.34 0 5 C0 4.01 0 3.02 0 2 C-0.66 1.67 -1.32 1.34 -2 1 C-1.34 0.67 -0.68 0.34 0 0 Z " fill="#A4A4A4" transform="translate(7,31)"/>
<path d="M0 0 C0.66 0 1.32 0 2 0 C0.63855967 5.19822672 -1.46730171 8.09543873 -5 12 C-5.99 11.67 -6.98 11.34 -8 11 C-6.76163579 7.28490737 -4.77895064 5.71117136 -2 3 C-1.34 2.01 -0.68 1.02 0 0 Z " fill="#A4A4A4" transform="translate(120,10)"/>
<path d="M0 0 C0.33 0.66 0.66 1.32 1 2 C0 4 0 4 -2.8125 5.125 C-6 6 -6 6 -10 6 C-9.67 4.68 -9.34 3.36 -9 2 C-6.03 1.34 -3.06 0.68 0 0 Z " fill="#CF2E06" transform="translate(112,11)"/>
<path d="M0 0 C1.65 0 3.3 0 5 0 C4.01 0.495 4.01 0.495 3 1 C2.67 1.99 2.34 2.98 2 4 C0.02 4.33 -1.96 4.66 -4 5 C-4 3.68 -4 2.36 -4 1 C-2.02 1.495 -2.02 1.495 0 2 C0 1.34 0 0.68 0 0 Z " fill="#FFE88E" transform="translate(70,76)"/>
<path d="M0 0 C3.96 0.33 7.92 0.66 12 1 C12 1.66 12 2.32 12 3 C7.83861737 3.08159574 4.0527516 2.98248524 0 2 C0 1.34 0 0.68 0 0 Z " fill="#FFE88E" transform="translate(40,79)"/>
<path d="M0 0 C0 0.66 0 1.32 0 2 C-4.37573952 2.59332061 -8.57528444 3.13827236 -13 3 C-8.83099908 0.22066605 -4.8978425 -1.63261417 0 0 Z " fill="#CF2E06" transform="translate(25,27)"/>
</svg>
